<svg xmlns="http://www.w3.org/2000/svg" xmlns:xlink="http://www.w3.org/1999/xlink" version="1.1" class="marks" width="690" height="433" viewBox="0 0 690 433"><rect width="690" height="433" fill="white"/><g fill="none" stroke-miterlimit="10" transform="translate(35,0)"><g class="mark-group role-frame root" role="graphics-object" aria-roledescription="group mark container"><g transform="translate(0,0)"><path class="background" aria-hidden="true" d="M0,0h600v400h-600Z" fill="lightgray"/><g><g class="mark-group role-axis" role="graphics-symbol" aria-roledescription="axis" aria-label="X-axis titled 'Rate' for a linear scale with values from 0% to 50%"><g transform="translate(0.5,401.5)"><path class="background" aria-hidden="true" d="M0,0h0v0h0Z" pointer-events="none"/><g><g class="mark-rule role-axis-grid" pointer-events="none"><line transform="translate(0,-1)" x2="0" y2="-400" stroke="white" stroke-width="0.5" stroke-dasharray="0" opacity="1"/><line transform="translate(60,-1)" x2="0" y2="-400" stroke="white" stroke-width="0.5" stroke-dasharray="0" opacity="1"/><line transform="translate(120,-1)" x2="0" y2="-400" stroke="white" stroke-width="0.5" stroke-dasharray="0" opacity="1"/><line transform="translate(180,-1)" x2="0" y2="-400" stroke="white" stroke-width="0.5" stroke-dasharray="0" opacity="1"/><line transform="translate(240,-1)" x2="0" y2="-400" stroke="white" stroke-width="0.5" stroke-dasharray="0" opacity="1"/><line transform="translate(300,-1)" x2="0" y2="-400" stroke="white" stroke-width="0.5" stroke-dasharray="0" opacity="1"/><line transform="translate(360,-1)" x2="0" y2="-400" stroke="white" stroke-width="0.5" stroke-dasharray="0" opacity="1"/><line transform="translate(420,-1)" x2="0" y2="-400" stroke="white" stroke-width="0.5" stroke-dasharray="0" opacity="1"/><line transform="translate(480,-1)" x2="0" y2="-400" stroke="white" stroke-width="0.5" stroke-dasharray="0" opacity="1"/><line transform="translate(540,-1)" x2="0" y2="-400" stroke="white" stroke-width="0.5" stroke-dasharray="0" opacity="1"/><line transform="translate(600,-1)" x2="0" y2="-400" stroke="white" stroke-width="0.5" stroke-dasharray="0" opacity="1"/></g><g class="mark-rule role-axis-tick" pointer-events="none"><line transform="translate(0,0)" x2="0" y2="5" stroke="black" stroke-width="1.01" opacity="1"/><line transform="translate(60,0)" x2="0" y2="5" stroke="black" stroke-width="1.01" opacity="1"/><line transform="translate(120,0)" x2="0" y2="5" stroke="black" stroke-width="1.01" opacity="1"/><line transform="translate(180,0)" x2="0" y2="5" stroke="black" stroke-width="1.01" opacity="1"/><line transform="translate(240,0)" x2="0" y2="5" stroke="black" stroke-width="1.01" opacity="1"/><line transform="translate(300,0)" x2="0" y2="5" stroke="black" stroke-width="1.01" opacity="1"/><line transform="translate(360,0)" x2="0" y2="5" stroke="black" stroke-width="1.01" opacity="1"/><line transform="translate(420,0)" x2="0" y2="5" stroke="black" stroke-width="1.01" opacity="1"/><line transform="translate(480,0)" x2="0" y2="5" stroke="black" stroke-width="1.01" opacity="1"/><line transform="translate(540,0)" x2="0" y2="5" stroke="black" stroke-width="1.01" opacity="1"/><line transform="translate(600,0)" x2="0" y2="5" stroke="black" stroke-width="1.01" opacity="1"/></g><g class="mark-text role-axis-label" pointer-events="none"><text text-anchor="middle" transform="translate(0,15)" font-family="sans-serif" font-size="10px" font-style="normal" font-weight="400" fill="black" opacity="1">0%</text><text text-anchor="middle" transform="translate(60,15)" font-family="sans-serif" font-size="10px" font-style="normal" font-weight="400" fill="black" opacity="1">5%</text><text text-anchor="middle" transform="translate(120,15)" font-family="sans-serif" font-size="10px" font-style="normal" font-weight="400" fill="black" opacity="1">10%</text><text text-anchor="middle" transform="translate(180,15)" font-family="sans-serif" font-size="10px" font-style="normal" font-weight="400" fill="black" opacity="1">15%</text><text text-anchor="middle" transform="translate(240,15)" font-family="sans-serif" font-size="10px" font-style="normal" font-weight="400" fill="black" opacity="1">20%</text><text text-anchor="middle" transform="translate(300,15)" font-family="sans-serif" font-size="10px" font-style="normal" font-weight="400" fill="black" opacity="1">25%</text><text text-anchor="middle" transform="translate(360,15)" font-family="sans-serif" font-size="10px" font-style="normal" font-weight="400" fill="black" opacity="1">30%</text><text text-anchor="middle" transform="translate(420,15)" font-family="sans-serif" font-size="10px" font-style="normal" font-weight="400" fill="black" opacity="1">35%</text><text text-anchor="middle" transform="translate(480,15)" font-family="sans-serif" font-size="10px" font-style="normal" font-weight="400" fill="black" opacity="1">40%</text><text text-anchor="middle" transform="translate(540,15)" font-family="sans-serif" font-size="10px" font-style="normal" font-weight="400" fill="black" opacity="1">45%</text><text text-anchor="middle" transform="translate(600,15)" font-family="sans-serif" font-size="10px" font-style="normal" font-weight="400" fill="black" opacity="1">50%</text></g><g class="mark-text role-axis-title" pointer-events="none"><text text-anchor="middle" transform="translate(300,30)" font-family="sans-serif" font-size="11px" font-style="normal" font-weight="400" fill="black" opacity="1">Rate</text></g></g><path class="foreground" aria-hidden="true" d="" pointer-events="none" display="none"/></g></g><g class="mark-group role-axis" role="graphics-symbol" aria-roledescription="axis" aria-label="Y-axis titled 'Month' for a discrete scale with 12 values: 1, 2, 3, 4, 5, ending with 12"><g transform="translate(-0.5,0.5)"><path class="background" aria-hidden="true" d="M0,0h0v0h0Z" pointer-events="none"/><g><g class="mark-rule role-axis-tick" pointer-events="none"><line transform="translate(0,15)" x2="-5" y2="0" stroke="black" stroke-width="1.01" opacity="1"/><line transform="translate(0,48)" x2="-5" y2="0" stroke="black" stroke-width="1.01" opacity="1"/><line transform="translate(0,82)" x2="-5" y2="0" stroke="black" stroke-width="1.01" opacity="1"/><line transform="translate(0,115)" x2="-5" y2="0" stroke="black" stroke-width="1.01" opacity="1"/><line transform="translate(0,149)" x2="-5" y2="0" stroke="black" stroke-width="1.01" opacity="1"/><line transform="translate(0,183)" x2="-5" y2="0" stroke="black" stroke-width="1.01" opacity="1"/><line transform="translate(0,216)" x2="-5" y2="0" stroke="black" stroke-width="1.01" opacity="1"/><line transform="translate(0,250)" x2="-5" y2="0" stroke="black" stroke-width="1.01" opacity="1"/><line transform="translate(0,284)" x2="-5" y2="0" stroke="black" stroke-width="1.01" opacity="1"/><line transform="translate(0,317)" x2="-5" y2="0" stroke="black" stroke-width="1.01" opacity="1"/><line transform="translate(0,351)" x2="-5" y2="0" stroke="black" stroke-width="1.01" opacity="1"/><line transform="translate(0,384)" x2="-5" y2="0" stroke="black" stroke-width="1.01" opacity="1"/></g><g class="mark-text role-axis-label" pointer-events="none"><text text-anchor="end" transform="translate(-7,17.62605042016807)" font-family="sans-serif" font-size="10px" font-style="normal" font-weight="400" fill="black" opacity="1">1</text><text text-anchor="end" transform="translate(-7,51.23949579831933)" font-family="sans-serif" font-size="10px" font-style="normal" font-weight="400" fill="black" opacity="1">2</text><text text-anchor="end" transform="translate(-7,84.8529411764706)" font-family="sans-serif" font-size="10px" font-style="normal" font-weight="400" fill="black" opacity="1">3</text><text text-anchor="end" transform="translate(-7,118.46638655462186)" font-family="sans-serif" font-size="10px" font-style="normal" font-weight="400" fill="black" opacity="1">4</text><text text-anchor="end" transform="translate(-7,152.07983193277312)" font-family="sans-serif" font-size="10px" font-style="normal" font-weight="400" fill="black" opacity="1">5</text><text text-anchor="end" transform="translate(-7,185.69327731092437)" font-family="sans-serif" font-size="10px" font-style="normal" font-weight="400" fill="black" opacity="1">6</text><text text-anchor="end" transform="translate(-7,219.30672268907566)" font-family="sans-serif" font-size="10px" font-style="normal" font-weight="400" fill="black" opacity="1">7</text><text text-anchor="end" transform="translate(-7,252.9201680672269)" font-family="sans-serif" font-size="10px" font-style="normal" font-weight="400" fill="black" opacity="1">8</text><text text-anchor="end" transform="translate(-7,286.53361344537814)" font-family="sans-serif" font-size="10px" font-style="normal" font-weight="400" fill="black" opacity="1">9</text><text text-anchor="end" transform="translate(-7,320.1470588235294)" font-family="sans-serif" font-size="10px" font-style="normal" font-weight="400" fill="black" opacity="1">10</text><text text-anchor="end" transform="translate(-7,353.76050420168065)" font-family="sans-serif" font-size="10px" font-style="normal" font-weight="400" fill="black" opacity="1">11</text><text text-anchor="end" transform="translate(-7,387.3739495798319)" font-family="sans-serif" font-size="10px" font-style="normal" font-weight="400" fill="black" opacity="1">12</text></g><g class="mark-rule role-axis-domain" pointer-events="none"><line transform="translate(0,0)" x2="0" y2="400" stroke="black" stroke-width="1.01" opacity="1"/></g><g class="mark-text role-axis-title" pointer-events="none"><text text-anchor="middle" transform="translate(-22.123046875,200) rotate(-90) translate(0,-2)" font-family="sans-serif" font-size="11px" font-style="normal" font-weight="400" fill="black" opacity="1">Month</text></g></g><path class="foreground" aria-hidden="true" d="" pointer-events="none" display="none"/></g></g><g class="mark-group role-scope" clip-path="url(#clip1)" role="graphics-object" aria-roledescription="group mark container"><g transform="translate(0,0)"><path class="background" aria-hidden="true" d="M0,0h0v0h0Z"/><g><g class="mark-rect role-mark" role="graphics-symbol" aria-roledescription="rect mark container"><path d="M0,1.7763568394002505e-15h8.022922636103152v9.742201965531974h-8.022922636103152Z" fill="#4c78a8" stroke="white" stroke-width="1" opacity="1"/><path d="M0,10.25494943740208h10.913467968436539v9.742201965531974h-10.913467968436539Z" fill="#f58518" stroke="white" stroke-width="1" opacity="1"/><path d="M0,20.509898874804158h14.294066062554808v9.742201965531974h-14.294066062554808Z" fill="#e45756" stroke="white" stroke-width="1" opacity="1"/></g></g><path class="foreground" aria-hidden="true" d="" display="none"/></g><g transform="translate(0,302.52100840336135)"><path class="background" aria-hidden="true" d="M0,0h0v0h0Z"/><g><g class="mark-rect role-mark" role="graphics-symbol" aria-roledescription="rect mark container"><path d="M0,1.7763568394002505e-15h1.7254728459241235v9.742201965531974h-1.7254728459241235Z" fill="#4c78a8" stroke="white" stroke-width="1" opacity="1"/><path d="M0,10.25494943740208h0.6982833866744254v9.742201965531974h-0.6982833866744254Z" fill="#f58518" stroke="white" stroke-width="1" opacity="1"/><path d="M0,20.509898874804158h1.9311232700354037v9.742201965531974h-1.9311232700354037Z" fill="#e45756" stroke="white" stroke-width="1" opacity="1"/></g></g><path class="foreground" aria-hidden="true" d="" display="none"/></g><g transform="translate(0,336.1344537815126)"><path class="background" aria-hidden="true" d="M0,0h0v0h0Z"/><g><g class="mark-rect role-mark" role="graphics-symbol" aria-roledescription="rect mark container"><path d="M0,1.7763568394002505e-15h4.946622978543495v9.742201965531974h-4.946622978543495Z" fill="#4c78a8" stroke="white" stroke-width="1" opacity="1"/><path d="M0,10.25494943740208h4.089121887287025v9.742201965531974h-4.089121887287025Z" fill="#f58518" stroke="white" stroke-width="1" opacity="1"/><path d="M0,20.509898874804158h2.753195673549656v9.742201965531974h-2.753195673549656Z" fill="#e45756" stroke="white" stroke-width="1" opacity="1"/></g></g><path class="foreground" aria-hidden="true" d="" display="none"/></g><g transform="translate(0,369.74789915966386)"><path class="background" aria-hidden="true" d="M0,0h0v0h0Z"/><g><g class="mark-rect role-mark" role="graphics-symbol" aria-roledescription="rect mark container"><path d="M0,1.7763568394002505e-15h8.57823669579031v9.742201965531974h-8.57823669579031Z" fill="#4c78a8" stroke="white" stroke-width="1" opacity="1"/><path d="M0,10.25494943740208h6.666666666666667v9.742201965531974h-6.666666666666667Z" fill="#f58518" stroke="white" stroke-width="1" opacity="1"/><path d="M0,20.509898874804158h9.878934624697337v9.742201965531974h-9.878934624697337Z" fill="#e45756" stroke="white" stroke-width="1" opacity="1"/></g></g><path class="foreground" aria-hidden="true" d="" display="none"/></g><g transform="translate(0,33.61344537815126)"><path class="background" aria-hidden="true" d="M0,0h0v0h0Z"/><g><g class="mark-rect role-mark" role="graphics-symbol" aria-roledescription="rect mark container"><path d="M0,1.7763568394002505e-15h6.491945179129599v9.742201965531974h-6.491945179129599Z" fill="#4c78a8" stroke="white" stroke-width="1" opacity="1"/><path d="M0,10.25494943740208h7.917383820998279v9.742201965531974h-7.917383820998279Z" fill="#f58518" stroke="white" stroke-width="1" opacity="1"/><path d="M0,20.509898874804158h9.54808806488992v9.742201965531974h-9.54808806488992Z" fill="#e45756" stroke="white" stroke-width="1" opacity="1"/></g></g><path class="foreground" aria-hidden="true" d="" display="none"/></g><g transform="translate(0,67.22689075630252)"><path class="background" aria-hidden="true" d="M0,0h0v0h0Z"/><g><g class="mark-rect role-mark" role="graphics-symbol" aria-roledescription="rect mark container"><path d="M0,1.7763568394002505e-15h191.51698766500758v9.742201965531974h-191.51698766500758Z" fill="#4c78a8" stroke="white" stroke-width="1" opacity="1"/><path d="M0,10.25494943740208h204.95993895459748v9.742201965531974h-204.95993895459748Z" fill="#f58518" stroke="white" stroke-width="1" opacity="1"/><path d="M0,20.509898874804158h220.43063889869396v9.742201965531974h-220.43063889869396Z" fill="#e45756" stroke="white" stroke-width="1" opacity="1"/></g></g><path class="foreground" aria-hidden="true" d="" display="none"/></g><g transform="translate(0,100.84033613445379)"><path class="background" aria-hidden="true" d="M0,0h0v0h0Z"/><g><g class="mark-rect role-mark" role="graphics-symbol" aria-roledescription="rect mark container"><path d="M0,1.7763568394002505e-15h451.62886597938143v9.742201965531974h-451.62886597938143Z" fill="#4c78a8" stroke="white" stroke-width="1" opacity="1"/><path d="M0,10.25494943740208h552.2048364153627v9.742201965531974h-552.2048364153627Z" fill="#f58518" stroke="white" stroke-width="1" opacity="1"/><path d="M0,20.509898874804158h441.7976533097188v9.742201965531974h-441.7976533097188Z" fill="#e45756" stroke="white" stroke-width="1" opacity="1"/></g></g><path class="foreground" aria-hidden="true" d="" display="none"/></g><g transform="translate(0,134.45378151260505)"><path class="background" aria-hidden="true" d="M0,0h0v0h0Z"/><g><g class="mark-rect role-mark" role="graphics-symbol" aria-roledescription="rect mark container"><path d="M0,1.7763568394002505e-15h46.379799020870905v9.742201965531974h-46.379799020870905Z" fill="#4c78a8" stroke="white" stroke-width="1" opacity="1"/><path d="M0,10.25494943740208h76.49402390438247v9.742201965531974h-76.49402390438247Z" fill="#f58518" stroke="white" stroke-width="1" opacity="1"/><path d="M0,20.509898874804158h34.65982028241335v9.742201965531974h-34.65982028241335Z" fill="#e45756" stroke="white" stroke-width="1" opacity="1"/></g></g><path class="foreground" aria-hidden="true" d="" display="none"/></g><g transform="translate(0,168.0672268907563)"><path class="background" aria-hidden="true" d="M0,0h0v0h0Z"/><g><g class="mark-rect role-mark" role="graphics-symbol" aria-roledescription="rect mark container"><path d="M0,1.7763568394002505e-15h0.9395184967704052v9.742201965531974h-0.9395184967704052Z" fill="#4c78a8" stroke="white" stroke-width="1" opacity="1"/><path d="M0,10.25494943740208h1.344286781179985v9.742201965531974h-1.344286781179985Z" fill="#f58518" stroke="white" stroke-width="1" opacity="1"/><path d="M0,20.509898874804158h3.0349013657056148v9.742201965531974h-3.0349013657056148Z" fill="#e45756" stroke="white" stroke-width="1" opacity="1"/></g></g><path class="foreground" aria-hidden="true" d="" display="none"/></g><g transform="translate(0,201.68067226890759)"><path class="background" aria-hidden="true" d="M0,0h0v0h0Z"/><g><g class="mark-rect role-mark" role="graphics-symbol" aria-roledescription="rect mark container"><path d="M0,1.7763568394002505e-15h8.136995747615217v9.742201965531974h-8.136995747615217Z" fill="#4c78a8" stroke="white" stroke-width="1" opacity="1"/><path d="M0,10.25494943740208h10.157194679564691v9.742201965531974h-10.157194679564691Z" fill="#f58518" stroke="white" stroke-width="1" opacity="1"/><path d="M0,20.509898874804158h8.78620240807029v9.742201965531974h-8.78620240807029Z" fill="#e45756" stroke="white" stroke-width="1" opacity="1"/></g></g><path class="foreground" aria-hidden="true" d="" display="none"/></g><g transform="translate(0,235.29411764705884)"><path class="background" aria-hidden="true" d="M0,0h0v0h0Z"/><g><g class="mark-rect role-mark" role="graphics-symbol" aria-roledescription="rect mark container"><path d="M0,1.7763568394002505e-15h7.2419269454737965v9.742201965531974h-7.2419269454737965Z" fill="#4c78a8" stroke="white" stroke-width="1" opacity="1"/><path d="M0,10.25494943740208h4.098360655737705v9.742201965531974h-4.098360655737705Z" fill="#f58518" stroke="white" stroke-width="1" opacity="1"/><path d="M0,20.509898874804158h16.63329739719698v9.742201965531974h-16.63329739719698Z" fill="#e45756" stroke="white" stroke-width="1" opacity="1"/></g></g><path class="foreground" aria-hidden="true" d="" display="none"/></g><g transform="translate(0,268.9075630252101)"><path class="background" aria-hidden="true" d="M0,0h0v0h0Z"/><g><g class="mark-rect role-mark" role="graphics-symbol" aria-roledescription="rect mark container"><path d="M0,1.7763568394002505e-15h3.6302032913843174v9.742201965531974h-3.6302032913843174Z" fill="#4c78a8" stroke="white" stroke-width="1" opacity="1"/><path d="M0,10.25494943740208h2.9064486830154403v9.742201965531974h-2.9064486830154403Z" fill="#f58518" stroke="white" stroke-width="1" opacity="1"/><path d="M0,20.509898874804158h10.233668770254136v9.742201965531974h-10.233668770254136Z" fill="#e45756" stroke="white" stroke-width="1" opacity="1"/></g></g><path class="foreground" aria-hidden="true" d="" display="none"/></g></g><g class="mark-group role-legend" role="graphics-symbol" aria-roledescription="legend" aria-label="Symbol legend titled 'Origin' for fill color with 3 values: LAX, SAN, SFO"><g transform="translate(618,0)"><path class="background" aria-hidden="true" d="M0,0h37v51h-37Z" pointer-events="none"/><g><g class="mark-group role-legend-entry"><g transform="translate(0,16)"><path class="background" aria-hidden="true" d="M0,0h0v0h0Z" pointer-events="none"/><g><g class="mark-group role-scope" role="graphics-object" aria-roledescription="group mark container"><g transform="translate(0,0)"><path class="background" aria-hidden="true" d="M0,0h36.5615234375v11h-36.5615234375Z" pointer-events="none" opacity="1"/><g><g class="mark-symbol role-legend-symbol" pointer-events="none"><path transform="translate(6,6)" d="M-5,-5h10v10h-10Z" fill="#4c78a8" stroke-width="1.5" opacity="1"/></g><g class="mark-text role-legend-label" pointer-events="none"><text text-anchor="start" transform="translate(16,9)" font-family="sans-serif" font-size="10px" font-style="normal" font-weight="400" fill="#000" opacity="1">LAX</text></g></g><path class="foreground" aria-hidden="true" d="" pointer-events="none" display="none"/></g><g transform="translate(0,12)"><path class="background" aria-hidden="true" d="M0,0h36.5615234375v11h-36.5615234375Z" pointer-events="none" opacity="1"/><g><g class="mark-symbol role-legend-symbol" pointer-events="none"><path transform="translate(6,6)" d="M-5,-5h10v10h-10Z" fill="#f58518" stroke-width="1.5" opacity="1"/></g><g class="mark-text role-legend-label" pointer-events="none"><text text-anchor="start" transform="translate(16,9)" font-family="sans-serif" font-size="10px" font-style="normal" font-weight="400" fill="#000" opacity="1">SAN</text></g></g><path class="foreground" aria-hidden="true" d="" pointer-events="none" display="none"/></g><g transform="translate(0,24)"><path class="background" aria-hidden="true" d="M0,0h36.5615234375v11h-36.5615234375Z" pointer-events="none" opacity="1"/><g><g class="mark-symbol role-legend-symbol" pointer-events="none"><path transform="translate(6,6)" d="M-5,-5h10v10h-10Z" fill="#e45756" stroke-width="1.5" opacity="1"/></g><g class="mark-text role-legend-label" pointer-events="none"><text text-anchor="start" transform="translate(16,9)" font-family="sans-serif" font-size="10px" font-style="normal" font-weight="400" fill="#000" opacity="1">SFO</text></g></g><path class="foreground" aria-hidden="true" d="" pointer-events="none" display="none"/></g></g></g><path class="foreground" aria-hidden="true" d="" pointer-events="none" display="none"/></g></g><g class="mark-text role-legend-title" pointer-events="none"><text text-anchor="start" transform="translate(0,9)" font-family="sans-serif" font-size="11px" font-style="normal" font-weight="400" fill="#000" opacity="1">Origin</text></g></g><path class="foreground" aria-hidden="true" d="" pointer-events="none" display="none"/></g></g></g><path class="foreground" aria-hidden="true" d="" display="none"/></g></g></g><defs><clipPath id="clip1"><rect x="0" y="0" width="600" height="400"/></clipPath></defs></svg>